<?xml version="1.0" encoding="UTF-8"?>
<!-- Generator: Adobe Illustrator 19.1.0, SVG Export Plug-In . SVG Version: 6.00 Build 0)  -->
<svg xmlns="http://www.w3.org/2000/svg" xmlns:xlink="http://www.w3.org/1999/xlink" xmlns:dc="http://purl.org/dc/elements/1.1/" xmlns:cc="http://creativecommons.org/ns#" xmlns:rdf="http://www.w3.org/1999/02/22-rdf-syntax-ns#" version="1.1" id="DESIGNS" x="0px" y="0px" width="32px" height="32px" viewBox="0 0 32 32" style="enable-background:new 0 0 32 32;" xml:space="preserve">
<title property="dc:title">to alert</title><desc property="dc:description">An icon for "alert" from the Lines and Angles series on to [icon]. Downloaded from http://www.toicon.com/icons/lines-and-angles_alert by 178.37.133.101 on 2019-01-21. Licensed CC-BY, see http://toicon.com/license/ for details.</desc>
<path class="linesandangles_een" d="M17,6h-2V4h2V6z M25.899,8.515L24.485,7.1l-1.414,1.414l1.414,1.414L25.899,8.515z M8.929,8.515  L7.515,7.1L6.101,8.515l1.414,1.414L8.929,8.515z M26,26h3v2H3v-2h3v-9c0-5.523,4.556-10,10-10s10,4.477,10,10V26z M24,17  c0-4.411-3.589-8-8-8s-8,3.589-8,8v9h16V17z M5,16H3v2h2V16z M27,16v2h2v-2H27z M10,17v7h2v-7c0-2.209,1.791-4,4-4v-2  C12.686,11,10,13.686,10,17z" style="fill: #111918;"/>
<metadata><work rdf:about=""><format>image/svg+xml</format><type rdf:resource="http://purl.org/dc/dcmitype/StillImage"/><license rdf:resource="http://creativecommons.org/licenses/by/4.0/"/><attributionname>Shannon E Thomas</attributionname><attributionurl>http://www.toicon.com/icons/lines-and-angles_alert</attributionurl></work></metadata></svg>
