<?xml version="1.0" encoding="UTF-8"?>
<!-- Generator: Adobe Illustrator 19.1.0, SVG Export Plug-In . SVG Version: 6.00 Build 0)  -->
<svg xmlns="http://www.w3.org/2000/svg" xmlns:xlink="http://www.w3.org/1999/xlink" xmlns:dc="http://purl.org/dc/elements/1.1/" xmlns:cc="http://creativecommons.org/ns#" xmlns:rdf="http://www.w3.org/1999/02/22-rdf-syntax-ns#" version="1.1" id="DESIGNS" x="0px" y="0px" width="32px" height="32px" viewBox="0 0 32 32" style="enable-background:new 0 0 32 32;" xml:space="preserve">
<title property="dc:title">to spy</title><desc property="dc:description">An icon for "spy" from the Sharp Corners series on to [icon]. Downloaded from http://www.toicon.com/icons/sharp-corners_spy by 178.37.133.101 on 2019-01-21. Licensed CC-BY, see http://toicon.com/license/ for details.</desc>
<path class="sharpcorners_een" d="M31,5v6H13L9,5H31z M2,15h2V8H1L2,15z M8.465,6H5v11h9c0-1.654,1.346-3,3-3c1.654,0,3,1.346,3,3  h11v-5H12.465L8.465,6z M20.5,24.086l-2.5-2.5v-2.863c0.595-0.346,1-0.984,1-1.723c0-1.105-0.895-2-2-2s-2,0.895-2,2  c0,0.738,0.405,1.376,1,1.723v3.691l3.086,3.086l-1.793,1.793l1.414,1.414l5-5l-1.414-1.414L20.5,24.086z" style="fill: #111918;"/>
<metadata><work rdf:about=""><format>image/svg+xml</format><type rdf:resource="http://purl.org/dc/dcmitype/StillImage"/><license rdf:resource="http://creativecommons.org/licenses/by/4.0/"/><attributionname>Shannon E Thomas</attributionname><attributionurl>http://www.toicon.com/icons/sharp-corners_spy</attributionurl></work></metadata></svg>
