<?xml version="1.0" encoding="UTF-8"?>
<!-- Generator: Adobe Illustrator 19.1.0, SVG Export Plug-In . SVG Version: 6.00 Build 0)  -->
<svg xmlns="http://www.w3.org/2000/svg" xmlns:xlink="http://www.w3.org/1999/xlink" xmlns:dc="http://purl.org/dc/elements/1.1/" xmlns:cc="http://creativecommons.org/ns#" xmlns:rdf="http://www.w3.org/1999/02/22-rdf-syntax-ns#" version="1.1" id="DESIGNS" x="0px" y="0px" width="32px" height="32px" viewBox="0 0 32 32" style="enable-background:new 0 0 32 32;" xml:space="preserve">
<title property="dc:title">to lock</title><desc property="dc:description">An icon for "lock" from the Blueprint series on to [icon]. Downloaded from http://www.toicon.com/icons/blueprint_lock by 178.37.133.101 on 2019-01-21. Licensed CC-BY, see http://toicon.com/license/ for details.</desc>
<path class="blueprint_een" d="M27,13h-3V8c0-4.418-3.582-8-8-8S8,3.582,8,8v5H5c-0.552,0-1,0.448-1,1v17c0,0.552,0.448,1,1,1  h22c0.552,0,1-0.448,1-1V14C28,13.448,27.552,13,27,13z M10,8c0-3.308,2.692-6,6-6s6,2.692,6,6v6h-2V8c0-2.206-1.794-4-4-4  s-4,1.794-4,4v6h-2V8z M18,8v5h-4V8c0-1.105,0.895-2,2-2S18,6.895,18,8z M26,30H6V15h20V30z M14,26c0,0.552,0.448,1,1,1h2  c0.552,0,1-0.448,1-1v-2.779c0.61-0.549,1-1.336,1-2.221c0-1.657-1.343-3-3-3s-3,1.343-3,3c0,0.885,0.39,1.672,1,2.221V26z M16,19  c1.103,0,2,0.897,2,2c0,0.565-0.238,1.09-0.669,1.478L17,22.776V26h-2v-3.224l-0.331-0.298C14.238,22.09,14,21.565,14,21  C14,19.897,14.897,19,16,19z" style="fill: #111918;"/>
<metadata><work rdf:about=""><format>image/svg+xml</format><type rdf:resource="http://purl.org/dc/dcmitype/StillImage"/><license rdf:resource="http://creativecommons.org/licenses/by/4.0/"/><attributionname>Shannon E Thomas</attributionname><attributionurl>http://www.toicon.com/icons/blueprint_lock</attributionurl></work></metadata></svg>
